<?xml version="1.0" standalone="no"?>
<!DOCTYPE svg PUBLIC "-//W3C//DTD SVG 20010904//EN"
 "http://www.w3.org/TR/2001/REC-SVG-20010904/DTD/svg10.dtd">
<svg version="1.0" xmlns="http://www.w3.org/2000/svg"
 width="260.000000pt" height="260.000000pt" viewBox="0 0 260.000000 260.000000"
 preserveAspectRatio="xMidYMid meet">
<metadata>
Created by potrace 1.11, written by Peter Selinger 2001-2013
</metadata>
<g transform="translate(0.000000,260.000000) scale(0.100000,-0.100000)"
fill="#000000" stroke="none">
<path d="M1017 2232 c-59 -59 -107 -111 -107 -115 0 -4 101 -7 225 -7 130 0
225 4 225 9 0 9 -220 221 -230 221 -3 0 -54 -48 -113 -108z"/>
<path d="M745 1960 l-110 -110 500 0 500 0 -110 110 -110 110 -280 0 -280 0
-110 -110z"/>
<path d="M490 1705 c-85 -85 -102 -107 -90 -115 9 -6 296 -10 738 -10 651 0
723 2 729 16 4 11 -24 46 -93 115 l-99 99 -540 0 -540 0 -105 -105z"/>
<path d="M240 1536 c-9 -12 -4 -23 31 -60 l42 -46 822 0 823 0 37 45 c21 26
34 52 31 60 -8 22 -1767 23 -1786 1z"/>
<path d="M214 1233 c-137 -132 -164 -162 -162 -183 l3 -25 338 -5 c286 -4 339
-7 347 -20 6 -9 10 -162 10 -365 0 -260 3 -354 12 -363 8 -8 53 -12 137 -12
l126 0 -40 19 c-122 56 -133 200 -21 266 l43 25 -19 40 c-37 75 0 146 81 157
l41 6 0 296 c0 218 -3 300 -12 309 -9 9 -104 12 -365 12 l-353 0 -166 -157z"/>
<path d="M1160 1371 c-6 -12 -10 -129 -10 -310 l0 -290 31 -16 c68 -36 70
-128 2 -184 l-36 -29 21 -29 c11 -15 34 -41 51 -57 l30 -29 26 54 c13 30 25
62 25 73 0 16 5 18 36 13 20 -3 39 -8 42 -11 9 -10 -21 -97 -50 -143 l-30 -47
22 -18 c12 -10 31 -18 41 -18 15 0 19 -7 19 -35 l0 -35 422 0 421 0 157 152
c87 84 161 163 165 176 17 52 23 52 -519 54 l-501 3 -3 175 c-2 156 -1 176 15
187 13 10 103 13 374 13 l358 0 7 23 c6 19 -15 44 -162 184 l-169 163 -387 0
c-373 0 -388 -1 -398 -19z"/>
<path d="M1078 699 c-22 -12 -23 -47 -2 -77 22 -32 34 -18 34 39 0 51 -3 55
-32 38z"/>
<path d="M1016 484 c-54 -55 -18 -144 59 -144 l35 0 0 55 c0 42 -6 63 -22 85
-27 37 -38 37 -72 4z"/>
<path d="M1150 381 c0 -12 6 -21 15 -21 8 0 15 4 15 9 0 5 -7 14 -15 21 -13
10 -15 9 -15 -9z"/>
<path d="M1198 291 c-37 -24 -26 -31 46 -31 l60 0 -34 25 c-39 29 -37 29 -72
6z"/>
<path d="M0 75 l0 -75 1300 0 1300 0 0 75 0 75 -1300 0 -1300 0 0 -75z"/>
</g>
</svg>
